<svg xmlns="http://www.w3.org/2000/svg" viewBox="0 0 296 305.95"><defs><style>.cls-1{fill:#e72929;}</style></defs><g id="Layer_2" data-name="Layer 2"><g id="Layer_1-2" data-name="Layer 1"><path class="cls-1" d="M163,.53C159.37.22,155.7.05,152,0V306c3.7-.05,7.37-.22,11-.53Z"/><path class="cls-1" d="M201,8.69c-3.61-1.27-7.27-2.42-11-3.42V300.68q5.59-1.51,11-3.42Z"/><path class="cls-1" d="M144,.1q-5.55.22-11,.82V305q5.44.6,11,.82Z"/><path class="cls-1" d="M182,3.34q-5.43-1.16-11-1.92V304.53q5.56-.76,11-1.92Z"/><path class="cls-1" d="M87,13.51C83.25,15.2,79.58,17.06,76,19V286.91c3.58,2,7.25,3.84,11,5.53Z"/><path class="cls-1" d="M57,274.46q5.32,4.08,11,7.7V23.79c-3.78,2.4-7.45,5-11,7.7Z"/><path class="cls-1" d="M125,2q-5.56.91-11,2.23V301.7q5.43,1.32,11,2.23Z"/><path class="cls-1" d="M106,6.41q-5.59,1.68-11,3.76V295.78q5.4,2.09,11,3.76Z"/><path class="cls-1" d="M30,58.06A153.51,153.51,0,0,0,19,73.89V232.06a153.51,153.51,0,0,0,11,15.83Z"/><path class="cls-1" d="M11,89A151.82,151.82,0,0,0,0,122.71v60.53A151.82,151.82,0,0,0,11,217Z"/><path class="cls-1" d="M296,107.1a151.73,151.73,0,0,0-11-26.17V225a151.73,151.73,0,0,0,11-26.17Z"/><path class="cls-1" d="M49,38.06q-5.76,5.07-11,10.69V257.19q5.24,5.63,11,10.7Z"/><path class="cls-1" d="M220,16.9q-5.38-2.77-11-5.13V294.18q5.61-2.35,11-5.13Z"/><path class="cls-1" d="M277,67.63a152.81,152.81,0,0,0-11-14.42V252.74a152.81,152.81,0,0,0,11-14.42Z"/><path class="cls-1" d="M239,28.52q-5.34-3.82-11-7.18V284.61q5.66-3.36,11-7.18Z"/><path class="cls-1" d="M258,44.6q-5.25-5.24-11-10V271.3q5.75-4.71,11-10Z"/></g></g></svg>