<svg xmlns="http://www.w3.org/2000/svg" viewBox="0 0 97.5 77.5"><defs><style>.cls-1{fill:#e72929;}</style></defs><g id="Layer_2" data-name="Layer 2"><g id="Layer_1-2" data-name="Layer 1"><polygon class="cls-1" points="67.87 47.42 67.87 18.51 64.62 21.77 44.44 41.94 35.69 33.19 35.69 47.42 39.5 47.42 39.5 42.39 44.44 47.33 64.06 27.72 64.06 47.42 67.87 47.42"/><polygon class="cls-1" points="47.12 36.34 29.63 18.85 29.63 47.42 33.44 47.42 33.44 28.05 44.42 39.04 47.12 36.34"/><polygon class="cls-1" points="61.81 32.97 45.95 48.84 48.64 51.53 58 42.17 58 47.42 61.81 47.42 61.81 32.97"/><path class="cls-1" d="M9.25,59.24A2.25,2.25,0,0,0,11.5,57V10.27A5.77,5.77,0,0,1,17.27,4.5H79.78a5.77,5.77,0,0,1,5.77,5.77V57a2.25,2.25,0,0,0,4.5,0V9.25A9.25,9.25,0,0,0,80.8,0H16.25A9.25,9.25,0,0,0,7,9.25V57A2.25,2.25,0,0,0,9.25,59.24Z"/><path class="cls-1" d="M95.86,62H67.1a2.25,2.25,0,0,0,0,4.5H92.17a.83.83,0,0,1,.83.84A5.67,5.67,0,0,1,87.33,73H10.17A5.67,5.67,0,0,1,4.5,67.34a.83.83,0,0,1,.83-.84H29.8a2.25,2.25,0,0,0,0-4.5H1.64A1.63,1.63,0,0,0,0,63.64v5.5A8.37,8.37,0,0,0,8.36,77.5H89.14a8.37,8.37,0,0,0,8.36-8.36v-5.5A1.63,1.63,0,0,0,95.86,62Z"/><path class="cls-1" d="M40.1,62a2.25,2.25,0,1,0,0,4.5H56.8a2.25,2.25,0,0,0,0-4.5Z"/></g></g></svg>