<svg xmlns="http://www.w3.org/2000/svg" viewBox="0 0 376.87 79.57"><defs><style>.cls-1{fill:#e62828;}.cls-2{fill:#fff;}</style></defs><g id="Layer_2" data-name="Layer 2"><g id="Layer_1-2" data-name="Layer 1"><polygon class="cls-1" points="67.87 47.42 67.87 18.51 64.62 21.77 44.44 41.94 35.69 33.19 35.69 47.42 39.5 47.42 39.5 42.39 44.44 47.33 64.06 27.72 64.06 47.42 67.87 47.42"/><polygon class="cls-1" points="47.12 36.34 29.63 18.85 29.63 47.42 33.44 47.42 33.44 28.05 44.42 39.04 47.12 36.34"/><polygon class="cls-1" points="61.81 32.97 45.95 48.84 48.64 51.53 58 42.17 58 47.42 61.81 47.42 61.81 32.97"/><path class="cls-1" d="M9.25,59.24A2.25,2.25,0,0,0,11.5,57V10.27A5.77,5.77,0,0,1,17.27,4.5H79.78a5.77,5.77,0,0,1,5.77,5.77V57a2.25,2.25,0,0,0,4.5,0V9.25A9.25,9.25,0,0,0,80.8,0H16.25A9.25,9.25,0,0,0,7,9.25V57A2.25,2.25,0,0,0,9.25,59.24Z"/><path class="cls-1" d="M95.86,62H67.1a2.25,2.25,0,0,0,0,4.5H92.17a.83.83,0,0,1,.83.84A5.67,5.67,0,0,1,87.33,73H10.17A5.67,5.67,0,0,1,4.5,67.34a.83.83,0,0,1,.83-.84H29.8a2.25,2.25,0,0,0,0-4.5H1.64A1.63,1.63,0,0,0,0,63.64v5.5A8.37,8.37,0,0,0,8.36,77.5H89.14a8.37,8.37,0,0,0,8.36-8.36v-5.5A1.63,1.63,0,0,0,95.86,62Z"/><path class="cls-1" d="M40.1,62a2.25,2.25,0,1,0,0,4.5H56.8a2.25,2.25,0,0,0,0-4.5Z"/><path class="cls-2" d="M128,65.31a15.23,15.23,0,0,1-8.19-1.93,11.33,11.33,0,0,1-4.49-5.24,18.52,18.52,0,0,1-1.4-7.35q0-6.85,2.28-10.6A12.68,12.68,0,0,1,122,35a17.9,17.9,0,0,1,7.17-1.49,15.61,15.61,0,0,1,5.9,1.14V26.33c0-2.06.2-3.39.61-4a2.9,2.9,0,0,1,2.55-.92,2.58,2.58,0,0,1,1.9,1.1c.61.73.92,2.19.92,4.36l.09,23.23a38.69,38.69,0,0,1-.88,9.37,6.58,6.58,0,0,1-3.7,4.58Q133.72,65.32,128,65.31Zm-.62-5.72a26.66,26.66,0,0,0,4.66-.31,3.07,3.07,0,0,0,2.38-1.8,12.8,12.8,0,0,0,.7-5l-.08-11.88a16.11,16.11,0,0,0-6.08-1,11.38,11.38,0,0,0-4.26.83,6.68,6.68,0,0,0-3.35,3.26,15.83,15.83,0,0,0-1.27,7.17Q120.09,59.6,127.39,59.59Z"/><path class="cls-2" d="M163.12,65.31A19.93,19.93,0,0,1,153,62.19q-5.28-3.12-6-11.75v-.79a18.77,18.77,0,0,1,1.59-7.48,14.93,14.93,0,0,1,5-6.21,13.9,13.9,0,0,1,8.49-2.5,12.82,12.82,0,0,1,6.65,2,11.42,11.42,0,0,1,4.79,5.67,10.73,10.73,0,0,1,.62,3.35c0,2.75-1.44,4.78-4.31,6.07a19.37,19.37,0,0,1-8.1,1.49,43.93,43.93,0,0,1-8.27-.88,9.43,9.43,0,0,0,4.88,6.16,18.49,18.49,0,0,0,8.49,1.85A3.76,3.76,0,0,1,170,60.3,2.66,2.66,0,0,1,170.6,62a5.09,5.09,0,0,1-.27,1.23c-.17.59-.82,1.06-1.93,1.41A21.08,21.08,0,0,1,163.12,65.31ZM161,46q7,0,7-2.73l-.09-.53q-1.41-3.6-5.9-3.6a10.55,10.55,0,0,0-4.71,1.32,8,8,0,0,0-3.82,4.57A32.82,32.82,0,0,0,161,46Z"/><path class="cls-2" d="M193.65,65.31q-3.08,0-5.85-4.53A50.25,50.25,0,0,1,183,49.69a83.53,83.53,0,0,1-3-13.15V36.1a3,3,0,0,1,1.14-2.47,4,4,0,0,1,2.46-.88l1.06,0c.59,0,1,.54,1.14,1.54a80.84,80.84,0,0,0,4.1,16.28c1.73,4.51,2.91,6.77,3.56,6.77s1.79-1.11,3.08-3.34A45.18,45.18,0,0,0,200,45.91a41.18,41.18,0,0,0,2.07-9.55q.43-2.64,2.64-2.64a2.51,2.51,0,0,1,1.85,1A4.61,4.61,0,0,1,207.73,37a18,18,0,0,1,.09,1.84,31.15,31.15,0,0,1-2.15,10.34A47.84,47.84,0,0,1,200,60.21Q196.38,65.31,193.65,65.31Z"/><path class="cls-2" d="M229.91,65.31a19.93,19.93,0,0,1-10.12-3.12q-5.28-3.12-6-11.75v-.79a18.77,18.77,0,0,1,1.59-7.48,14.93,14.93,0,0,1,5-6.21,13.9,13.9,0,0,1,8.49-2.5,12.82,12.82,0,0,1,6.65,2,11.42,11.42,0,0,1,4.79,5.67,10.73,10.73,0,0,1,.62,3.35c0,2.75-1.44,4.78-4.31,6.07A19.34,19.34,0,0,1,228.5,52a43.93,43.93,0,0,1-8.27-.88,9.43,9.43,0,0,0,4.88,6.16,18.49,18.49,0,0,0,8.49,1.85,3.75,3.75,0,0,1,3.17,1.15,2.66,2.66,0,0,1,.62,1.67,5.09,5.09,0,0,1-.27,1.23c-.17.59-.82,1.06-1.93,1.41A21.08,21.08,0,0,1,229.91,65.31ZM227.8,46q7,0,7-2.73l-.09-.53q-1.41-3.6-5.9-3.6a10.55,10.55,0,0,0-4.71,1.32,8,8,0,0,0-3.82,4.57A32.82,32.82,0,0,0,227.8,46Z"/><path class="cls-2" d="M250.5,65.49A4.58,4.58,0,0,1,248,64.7a2.35,2.35,0,0,1-1.24-2Q247,57.57,247,52L246.8,40.5l-.08-9.95V26.42A2.27,2.27,0,0,1,248,24.3a3.52,3.52,0,0,1,1.84-.52,8.37,8.37,0,0,1,1.19.13c.56.09.93.6,1.1,1.54q1,9.24,1,29.92v5.72a5.18,5.18,0,0,1-.88,3.3A2.39,2.39,0,0,1,250.5,65.49Z"/><path class="cls-2" d="M270.83,64.87q-5.9,0-9.24-3.17a14.64,14.64,0,0,1-4.84-11.52,23.41,23.41,0,0,1,1.05-6.3A15.1,15.1,0,0,1,262.38,37a14,14,0,0,1,9.06-3.48,10.71,10.71,0,0,1,7.75,3.08,18.53,18.53,0,0,1,4.66,7.75,21,21,0,0,1,.88,6,34.89,34.89,0,0,1-.48,4.84c-.32,2.11-1.59,4.26-3.79,6.43S275.05,64.87,270.83,64.87Zm.09-5.72c3.05,0,5.19-1,6.42-3a11.25,11.25,0,0,0,1.5-5.81c0-.29,0-1.16-.14-2.59a10.62,10.62,0,0,0-2.15-5.11,6,6,0,0,0-5.11-2.95q-4.67,0-6.82,2.91a10.69,10.69,0,0,0-2.15,6.51,11.46,11.46,0,0,0,2.2,7.08A7.32,7.32,0,0,0,270.92,59.15Z"/><path class="cls-2" d="M291.51,79.57q-2.55,0-2.55-5.46l-.09-25.25a40.07,40.07,0,0,1,.79-8.85,6.54,6.54,0,0,1,3.52-4.71,18.43,18.43,0,0,1,7.66-1.76,28.53,28.53,0,0,1,5.41.8q3.64.78,7,5.8a18.49,18.49,0,0,1,2.56,10.21q0,14.7-14.26,14.7a20.55,20.55,0,0,1-6.6-1.06V74.55c0,2.11-.23,3.48-.7,4.09A3.27,3.27,0,0,1,291.51,79.57Zm9.77-20.15a25.08,25.08,0,0,0,4.53-.66q3.12-.66,4-6.21L309.9,51q0-5.37-2.38-8.27a8.09,8.09,0,0,0-6.68-3.26,7.84,7.84,0,0,0-5,1.76c-.65.53-1,1.64-1,3.34v1.94q0,7,.09,11.18A12.33,12.33,0,0,0,301.28,59.42Z"/><path class="cls-2" d="M337.88,65.31a20,20,0,0,1-10.12-3.12q-5.28-3.12-6-11.75v-.79a18.93,18.93,0,0,1,1.58-7.48,15,15,0,0,1,5-6.21,13.88,13.88,0,0,1,8.49-2.5,12.79,12.79,0,0,1,6.64,2,11.44,11.44,0,0,1,4.8,5.67,10.69,10.69,0,0,1,.61,3.35c0,2.75-1.43,4.78-4.31,6.07A19.33,19.33,0,0,1,336.48,52a43.94,43.94,0,0,1-8.28-.88,9.41,9.41,0,0,0,4.89,6.16,18.44,18.44,0,0,0,8.49,1.85,3.78,3.78,0,0,1,3.17,1.15,2.65,2.65,0,0,1,.61,1.67,4.92,4.92,0,0,1-.26,1.23c-.18.59-.82,1.06-1.94,1.41A21,21,0,0,1,337.88,65.31ZM335.77,46c4.7,0,7-.91,7-2.73l-.09-.53c-.93-2.4-2.9-3.6-5.89-3.6a10.55,10.55,0,0,0-4.71,1.32,8,8,0,0,0-3.83,4.57A32.89,32.89,0,0,0,335.77,46Z"/><path class="cls-2" d="M358,65.31a2.43,2.43,0,0,1-2.38-1.76q-.89-2.37-.88-29.48a2.19,2.19,0,0,1,1.41-2.29,3.18,3.18,0,0,1,1.4-.35c1.65,0,2.62.68,2.91,2,.06.7.09,2.08.09,4.13a9.1,9.1,0,0,1,3.3-2.64,13.3,13.3,0,0,1,6.38-1.32,10.41,10.41,0,0,1,4.49.79c1.4,1,2.11,2,2.11,3,0,.11,0,.45-.05,1s-.51,1.16-1.45,1.8a2.85,2.85,0,0,1-1.58.53,2.43,2.43,0,0,1-1.06-.26,7,7,0,0,0-3.17-.71l-1.49.09c-1.59.23-3,1.35-4.36,3.34s-2,5.4-2,10.21v2.73a45.56,45.56,0,0,1-.35,6.16A3.08,3.08,0,0,1,358,65.31Z"/></g></g></svg>